PathFileType	4	(X/Y/Z)	C:/Users/opensim2020/Desktop/walking_exp_matlab/subject02_walking05_straight_01.trc																																																																																																																												
DataRate	CameraRate	NumFrames	NumMarkers	Units	OrigDataRate	OrigDataStartFrame	OrigNumFrames																																																																																																																								
100	100	5	42	mm	100	816	190																																																																																																																								
Frame#	Time	LFHD			RFHD			LBHD			RBHD			C7			T10			CLAV			STRN			RBAK			LSHO			LUPA			LELB			LFRM			LWRA			LWRB			LFIN			RSHO			RUPA			RELB			RFRM			RWRA			RWRB			RFIN			LASI			RASI			LPSI			RPSI			LTHI			LKNE			LTIB			LANK			LHEE			LTOE			RTHI			RKNE			RTIB			RANK			RHEE			RTOE			*39			*40			*41		
		X1	Y1	Z1	X2	Y2	Z2	X3	Y3	Z3	X4	Y4	Z4	X5	Y5	Z5	X6	Y6	Z6	X7	Y7	Z7	X8	Y8	Z8	X9	Y9	Z9	X10	Y10	Z10	X11	Y11	Z11	X12	Y12	Z12	X13	Y13	Z13	X14	Y14	Z14	X15	Y15	Z15	X16	Y16	Z16	X17	Y17	Z17	X18	Y18	Z18	X19	Y19	Z19	X20	Y20	Z20	X21	Y21	Z21	X22	Y22	Z22	X23	Y23	Z23	X24	Y24	Z24	X25	Y25	Z25	X26	Y26	Z26	X27	Y27	Z27	X28	Y28	Z28	X29	Y29	Z29	X30	Y30	Z30	X31	Y31	Z31	X32	Y32	Z32	X33	Y33	Z33	X34	Y34	Z34	X35	Y35	Z35	X36	Y36	Z36	X37	Y37	Z37	X38	Y38	Z38	X39	Y39	Z39	X40	Y40	Z40	X41	Y41	Z41	X42	Y42	Z42
																																																																																																																															
167	1.66	378.18759	1732.69421	-1144.25513	361.90637	1714.39124	-1001.70886	267.74832	1632.79907	-1169.22363	239.66571	1610.70264	-1030.07861	215.72321	1503.44592	-1089.26855	155.73259	1232.18433	-1075.83203	357.94485	1435.10083	-1097.79419	402.88446	1261.92444	-1076.45581	155.10628	1337.26245	-1014.9953	289.76724	1467.32556	-1269.49255	224.44243	1278.55566	-1344.68884	181.03539	1146.07385	-1355.9552	145.01567	1020.70776	-1376.34949	157.04214	880.63245	-1357.23596	113.38712	901.9649	-1386.09399	104.70515	835.07233	-1390.93933	299.12347	1481.81091	-902.81647	299.62125	1294.45618	-806.31244	344.78162	1151.98706	-782.09967	419.62936	1054.41016	-779.08514	511.66638	962.86298	-816.87152	475.70792	936.79144	-780.71436	536.74615	899.58441	-786.85205	408.55621	981.21631	-1198.52283	381.63889	950.44452	-942.19861	188.56548	1011.89093	-1141.0271	172.02045	1002.65417	-1028.32227	415.50546	682.62451	-1271.0116	447.56479	483.49307	-1243.86035	436.58191	289.42242	-1258.31458	477.01498	72.85223	-1228.69141	438.08069	43.60962	-1183.25476	635.0415	39.79383	-1220.33752	245.38988	655.14935	-882.11902	203.31837	451.99918	-901.63232	67.9038	318.61057	-903.53278	-49.93866	165.97266	-939.1275	-100.78777	136.74254	-999.4812	50.08429	36.48788	-927.401	253.57619	1775.73633	-1070.93909	2845.2229	1033.68835	-3360.21826	NaN	NaN	NaN
168	1.67	387.68674	1734.12549	-1146.74585	371.24017	1715.99609	-1004.23706	277.1955	1634.25623	-1171.59985	249.51096	1612.20544	-1032.27881	225.43976	1504.69336	-1091.10974	166.0771	1233.10217	-1077.74487	367.54022	1436.77051	-1100.30371	413.41754	1263.6842	-1079.64905	165.32141	1337.84424	-1017.53607	299.36551	1468.92212	-1272.22339	236.35263	1278.92163	-1347.25586	194.33298	1146.13965	-1358.78198	159.51385	1020.52539	-1379.29211	172.52197	880.56128	-1359.89758	129.02196	901.68231	-1389.1665	120.71056	834.56616	-1393.81726	309.45331	1482.81543	-904.79657	308.10855	1295.37158	-808.70184	351.94138	1152.08936	-784.71429	426.18805	1054.10522	-782.02612	517.37079	962.02472	-819.56104	481.4028	936.23706	-783.61298	542.35535	898.87708	-789.4231	419.47845	983.0368	-1202.36804	392.97861	951.15424	-946.74463	199.22076	1013.93958	-1143.73682	183.82068	1003.99121	-1030.09424	427.72415	684.17767	-1272.93958	457.43198	484.52408	-1244.94421	442.43234	291.06989	-1259.2395	477.77991	72.92077	-1228.5918	438.60318	43.5599	-1183.00049	635.72473	39.20224	-1220.35046	259.27658	655.49219	-883.89795	220.46243	452.42865	-899.83411	82.10931	322.90048	-902.5824	-39.04721	173.64877	-939.1748	-89.75545	147.26408	-1000.6889	51.48164	36.61135	-927.74445	263.09802	1777.19165	-1073.63745	2845.15576	1033.94897	-3360.14282	NaN	NaN	NaN
169	1.68	396.98682	1735.57227	-1149.18335	380.53226	1717.80627	-1006.70959	286.42755	1635.80664	-1173.86414	258.53262	1613.99402	-1034.51404	235.04007	1506.07593	-1092.74744	176.37256	1234.07654	-1079.61279	377.04672	1438.56689	-1102.70215	423.59863	1265.48694	-1082.78711	175.63901	1338.67627	-1019.40063	308.75662	1470.81567	-1274.54492	248.33728	1279.83337	-1350.14343	207.96349	1146.48865	-1361.57861	174.69655	1020.70691	-1382.62305	188.90398	880.74451	-1362.55835	145.48035	901.42145	-1392.39465	137.73727	834.17664	-1396.73413	319.92041	1483.90649	-906.99652	316.54968	1296.54541	-811.38416	359.27713	1153.02332	-787.20642	432.30164	1054.05701	-784.76202	522.62915	961.33502	-822.24121	486.4379	935.81189	-786.37103	546.88379	897.91699	-792.427	430.13324	985.35803	-1205.91711	403.86197	952.18677	-951.59491	209.6638	1015.80591	-1146.29114	195.50858	1005.60498	-1031.8374	439.97098	685.51038	-1275.31384	465.85263	485.3045	-1246.07019	446.95364	292.59509	-1259.87036	478.04697	73.02743	-1228.30701	438.69296	43.70618	-1182.79883	636.30664	38.78862	-1219.93066	272.93134	655.72754	-885.4541	238.233	452.89911	-898.34259	97.3784	327.15704	-901.58813	-27.07556	181.40234	-939.63068	-77.02383	157.82132	-1001.99451	53.27007	36.8315	-928.81604	272.34094	1779.16138	-1076.41931	2845.72437	1033.76636	-3356.83252	NaN	NaN	NaN
170	1.69	406.25052	1736.87476	-1151.53333	389.84906	1719.36108	-1008.93018	295.50418	1637.26514	-1175.94824	267.35544	1615.96375	-1036.80176	244.40607	1507.15295	-1094.28467	186.49176	1235.10266	-1081.36389	386.68079	1440.4541	-1105.07336	434.25015	1267.41931	-1085.85266	185.842	1339.69287	-1020.90271	317.83713	1472.99243	-1276.42761	260.37585	1280.77759	-1352.50818	221.92038	1147.11353	-1364.39343	190.48424	1020.93182	-1385.38879	206.15981	881.15332	-1365.27588	162.87167	901.17834	-1395.69177	155.79506	833.9942	-1399.95239	330.09378	1485.40295	-909.24188	324.8692	1298.047	-813.98846	366.18439	1154.17419	-789.89966	438.36172	1054.50781	-787.46771	527.6048	960.63202	-824.88739	490.91293	935.46082	-789.16772	550.97925	897.16266	-794.61969	440.38678	987.94769	-1209.11572	414.7023	953.61188	-955.94617	220.08017	1017.37769	-1148.68567	206.60265	1007.18463	-1033.60925	451.23611	686.27661	-1277.1593	472.76776	485.67334	-1247.30835	450.15094	293.13483	-1259.98572	478.44193	72.97559	-1228.08325	438.3815	43.99656	-1182.85339	636.69025	38.29836	-1219.77368	287.2374	655.65515	-887.06189	256.83853	453.11575	-897.24805	113.68695	331.20584	-900.83777	-13.23736	188.37737	-939.64343	-63.12717	167.9397	-1002.87842	55.84795	37.54619	-929.92371	281.84589	1780.73328	-1078.7085	2845.10132	1033.76245	-3360.23413	NaN	NaN	NaN
171	1.7	415.30768	1738.19824	-1153.75623	398.86649	1721.12378	-1011.07709	304.44284	1638.66443	-1177.89172	276.66498	1617.50745	-1038.49939	253.58543	1507.90515	-1095.89124	196.53299	1236.1886	-1083.10852	396.24933	1442.2959	-1107.23291	444.62839	1269.33655	-1088.70593	195.87001	1340.93311	-1022.01215	326.75726	1475.25452	-1278.15698	272.3866	1282.02881	-1355.03479	236.13708	1148.04883	-1367.26514	206.81825	1021.38324	-1388.51025	224.20189	881.71906	-1367.97803	181.14528	901.33093	-1399.2356	174.88522	833.5733	-1402.85779	340.02658	1487.05334	-911.59113	333.32376	1299.6792	-816.61456	372.79117	1155.50171	-792.52985	443.79532	1054.92542	-790.07281	532.04224	959.96832	-827.44653	495.0036	935.18677	-791.77258	554.72229	896.17523	-797.34326	450.40457	990.54303	-1211.97681	425.01202	955.10303	-960.21301	230.40446	1018.67047	-1150.88062	217.06662	1008.80133	-1035.32434	461.17401	687.07794	-1278.69714	478.31537	485.54083	-1248.66553	452.07336	292.61819	-1259.78308	478.51511	72.83666	-1227.91602	438.3045	44.03547	-1183.0719	636.90424	38.09675	-1219.64307	301.83478	655.52771	-888.59198	275.3566	453.39313	-896.53418	130.9733	334.74066	-900.57184	1.15549	194.80748	-939.66351	-48.66518	177.39282	-1003.44824	60.67286	39.91574	-931.18427	291.01712	1782.34045	-1080.88733	2845.91187	1033.76917	-3356.95776	NaN	NaN	NaN
